<?xml version="1.0" standalone="no"?><!DOCTYPE svg PUBLIC "-//W3C//DTD SVG 1.1//EN" "http://www.w3.org/Graphics/SVG/1.1/DTD/svg11.dtd"><svg t="1575444113191" class="icon" viewBox="0 0 1024 1024" version="1.1" xmlns="http://www.w3.org/2000/svg" p-id="6714" xmlns:xlink="http://www.w3.org/1999/xlink" width="300" height="300"><defs><style type="text/css"></style></defs><path d="M848.896 0h-274.624c-41.152 0-68.64 22.72-68.64 56.864V967.04c0 34.176 27.456 56.928 68.64 56.928h274.624c41.088 0 68.544-28.448 68.544-56.928V56.864C917.504 22.72 890.048 0 848.896 0z m0 56.864V967.04h-274.624v-85.312h205.952v-56.864h-205.952V711.04h205.952v-56.864h-205.952v-113.76h205.952v-56.864h-205.952v-113.792h205.952V312.864h-205.952V199.104h205.952V142.208h-205.952V56.864h274.624z m-542.944 0V0H100v56.864H168.64V967.04H100V1024h205.952v-56.928H237.216V56.864h68.736z" fill="#ffffff" p-id="6715"></path></svg>