<?xml version="1.0" standalone="no"?><!DOCTYPE svg PUBLIC "-//W3C//DTD SVG 1.1//EN" "http://www.w3.org/Graphics/SVG/1.1/DTD/svg11.dtd"><svg t="1575441708628" class="icon" viewBox="0 0 1024 1024" version="1.1" xmlns="http://www.w3.org/2000/svg" p-id="1622" xmlns:xlink="http://www.w3.org/1999/xlink" width="200" height="200"><defs><style type="text/css"></style></defs><path d="M638.867 177.676l-105.73 106.879L368.684 162l-208.32 188.332V862h703.272V169.739l-224.769 7.937zM220.591 801.795V663.564L327.78 548.769l-61.731 253.026h-45.458z m487.966-312.568L632.41 801.795H507.313l69.646-224.548 88.44-88.02h43.158z m-487.966 86.162V377.063l151.807-137.258L539.107 364.04l125.717-127.044 138.629-4.908v196.933H640.547l-96.178 95.758-190.057-92.641-133.721 143.251z m293.443 1.548l-69.735 224.858H328.001l68.762-282.034 117.271 57.176z m289.419-87.71v312.568H694.318l76.147-312.568h32.988z" fill="#ffffff" p-id="1623"></path></svg>