<?xml version="1.0" standalone="no"?><!DOCTYPE svg PUBLIC "-//W3C//DTD SVG 1.1//EN" "http://www.w3.org/Graphics/SVG/1.1/DTD/svg11.dtd"><svg t="1575444046044" class="icon" viewBox="0 0 1024 1024" version="1.1" xmlns="http://www.w3.org/2000/svg" p-id="3983" xmlns:xlink="http://www.w3.org/1999/xlink" width="300" height="300"><defs><style type="text/css"></style></defs><path d="M43.933358 473.011011l938.177933 0.061398-0.01842 285.520849-938.178956-0.060375L43.933358 473.011011zM941.305285 717.802226l0.013304-203.943902-101.975618-0.00614-0.007163 122.366955c-0.001023 11.271718-9.134405 20.392446-20.397375 20.391423-11.262969 0-20.394305-9.122775-20.394305-20.394493l0.008187-122.366955-61.185985-0.004093-0.004093 61.182454c0 11.272741-9.133382 20.394493-20.396352 20.393469-11.262969 0-20.394305-9.123798-20.393281-20.396539l0.00307-61.182454-61.185985-0.004093-0.007163 122.367979c-0.001023 11.271718-9.133382 20.392446-20.397375 20.391423-11.263993 0-20.395328-9.122775-20.394305-20.394493l0.008187-122.366955-61.185985-0.004093-0.00307 61.182454c-0.001023 11.272741-9.133382 20.394493-20.398398 20.393469-11.260923 0-20.392258-9.123798-20.392258-20.396539l0.004093-61.182454-61.185985-0.004093-0.008187 122.366955c-0.001023 11.271718-9.133382 20.393469-20.397375 20.392446-11.263993 0-20.394305-9.122775-20.393281-20.394493l0.007163-122.366955-61.185985-0.004093-0.00307 61.182454c-0.001023 11.272741-9.132359 20.394493-20.396352 20.394493-11.262969-0.001023-20.395328-9.124821-20.394305-20.397562l0.00307-61.182454-61.184961-0.004093-0.008187 122.366955c0 11.271718-9.131335 20.392446-20.395328 20.391423-11.262969 0-20.396352-9.121751-20.395328-20.393469l0.008187-122.366955-101.975618-0.007163L84.706618 717.746968 941.305285 717.802226z" p-id="3984" fill="#ffffff"></path><path d="M41.376011 335.577918l940.921529 0 0 53.721529-940.921529 0 0-53.721529Z" p-id="3985" fill="#ffffff"></path></svg>