<svg class="icon" viewBox="0 0 1024 1024" xmlns="http://www.w3.org/2000/svg" height="48" width="48"><path d="M927.289 915.911V699.733H1024V1024H0V0h392.533v108.089H96.711V915.91H927.29zM381.156 375.467c28.444 0 51.2 11.377 79.644 28.444 5.689 5.689 11.378 11.378 17.067 11.378 0-5.689 11.377-11.378 17.066-17.067 28.445-17.066 51.2-28.444 85.334-28.444s68.266 17.066 91.022 45.51c28.444 28.445 39.822 79.645 39.822 142.223V768H603.022V500.622c-5.689-11.378-5.689-17.066-11.378-22.755 0 0-11.377-5.69-17.066-5.69-11.378 0-22.756 5.69-28.445 11.379-22.755 11.377-28.444 22.755-34.133 34.133 0 17.067-5.689 45.511-5.689 85.333v159.29h-102.4v-261.69c-5.689-17.066-11.378-22.755-11.378-22.755-11.377-5.69-17.066-5.69-22.755-5.69-11.378 0-17.067 0-28.445 5.69-17.066 17.066-22.755 22.755-28.444 34.133-5.689 11.378-11.378 39.822-11.378 79.644v170.667h-102.4V369.778H307.2v28.444c17.067-11.378 39.822-22.755 73.956-22.755zM853.333 409.6l164.978 5.689v39.822H739.556l153.6-136.533c28.444-22.756 45.51-39.822 51.2-51.2s22.755-34.134 22.755-51.2-5.689-28.445-22.755-45.511c-17.067-11.378-28.445-17.067-45.512-17.067-22.755 0-45.51 0-62.577 17.067-22.756 17.066-28.445 34.133-28.445 56.889h-45.51c5.688-34.134 17.066-62.578 45.51-85.334s56.89-39.822 96.711-39.822 62.578 5.689 91.023 28.444S1024 182.044 1024 210.49c0 22.755-11.378 39.822-22.756 56.889-17.066 17.066-34.133 39.822-56.888 62.578L853.333 409.6z" fill="#fff"/></svg>