<?xml version="1.0" standalone="no"?><!DOCTYPE svg PUBLIC "-//W3C//DTD SVG 1.1//EN" "http://www.w3.org/Graphics/SVG/1.1/DTD/svg11.dtd"><svg t="1577668196500" class="icon" viewBox="0 0 1024 1024" version="1.1" xmlns="http://www.w3.org/2000/svg" p-id="6606" xmlns:xlink="http://www.w3.org/1999/xlink" width="64" height="64"><defs><style type="text/css"></style></defs><path d="M199.308838 860.282026l-36.099305-36.099305 72.19861-71.690169 36.099305 36.099305zM305.064548 752.492552l-36.099305-36.099305 71.690169-71.690169 36.099305 36.099305z m107.789474-107.789474L379.296922 610.129096l71.690168-71.690168 36.099305 36.099304z m107.789474-107.789473l-36.099305-36.099305L559.285005 429.124131l36.099305 36.099305z m107.789473-107.789474l-36.099305-36.099305 71.690169-71.690169 36.099305 36.099305z m107.789474-107.789474l-36.099305-36.099304 74.740814-71.690169 36.099305 36.099305z m110.331678-107.789473l-36.099305-36.099305 13.727905-13.727905 36.099305 36.099305z" fill="#ffffff" p-id="6607"></path><path d="M867.90864 156.09136v762.661371a50.844091 50.844091 0 1 1-101.688183 0v-660.973188h-660.973188a50.844091 50.844091 0 0 1 0-101.688183z" fill="#ffffff" p-id="6608"></path><path d="M918.752731 867.90864h-762.661371v-762.661371a50.844091 50.844091 0 0 1 101.688183 0v660.973188h660.973188a50.844091 50.844091 0 0 1 0 101.688183z" fill="#ffffff" p-id="6609"></path></svg>