<?xml version="1.0" standalone="no"?><!DOCTYPE svg PUBLIC "-//W3C//DTD SVG 1.1//EN" "http://www.w3.org/Graphics/SVG/1.1/DTD/svg11.dtd"><svg t="1577668096059" class="icon" viewBox="0 0 1024 1024" version="1.1" xmlns="http://www.w3.org/2000/svg" p-id="5893" xmlns:xlink="http://www.w3.org/1999/xlink" width="64" height="64"><defs><style type="text/css"></style></defs><path d="M395.776 906.24c-71.168 0-142.336-27.136-196.608-81.408C146.432 772.096 117.76 702.464 117.76 628.224s28.672-143.872 81.408-196.608l94.208-94.208c22.016-22.016 51.712-34.304 82.944-34.304s60.928 12.288 82.944 34.304l22.528 22.528 74.752-74.752-25.088-25.088c-15.872-15.872-24.576-36.864-24.576-58.88 0-22.528 8.704-43.008 24.576-58.88 32.256-32.768 85.504-32.768 117.76 0l231.936 231.936c32.256 32.768 32.256 85.504 0 117.76-15.872 15.872-36.864 24.576-58.88 24.576-22.528 0-43.008-8.704-58.88-24.576l-25.088-25.088-74.752 74.752 22.528 22.528c45.568 45.568 45.568 120.32 0 166.4l-94.208 94.208C538.112 879.104 466.944 906.24 395.776 906.24zM376.832 369.664c-13.824 0-26.624 5.12-35.84 14.848L246.272 478.72c-39.936 39.936-61.952 93.184-61.952 149.504s22.016 109.568 61.952 149.504c82.432 82.432 216.576 82.432 299.008 0l94.208-94.208c19.968-19.968 19.968-52.224 0-72.192l-46.08-46.08c-12.8-12.8-12.8-34.304 0-47.104l121.856-121.856c12.8-12.8 34.304-12.8 47.104 0l48.64 48.64c4.096 4.096 9.216 5.12 11.776 5.12 2.56 0 7.68-0.512 11.776-5.12 6.656-6.656 6.656-17.408 0-23.552L602.624 189.44c-4.096-4.096-9.216-5.12-11.776-5.12s-7.68 0.512-11.776 5.12c-4.096 4.096-5.12 9.216-5.12 11.776s0.512 7.68 5.12 11.776l48.64 48.64c12.8 12.8 12.8 34.304 0 47.104L505.856 430.08c-12.8 12.8-34.304 12.8-47.104 0l-46.08-46.08c-9.728-9.216-22.528-14.336-35.84-14.336z" fill="#ffffff" p-id="5894"></path><path d="M318.464 738.304c-8.704 0-16.896-3.072-23.552-9.728-12.8-12.8-12.8-34.304 0-47.104l146.432-146.432c12.8-12.8 34.304-12.8 47.104 0 12.8 12.8 12.8 34.304 0 47.104l-146.432 146.432c-6.656 6.656-15.36 9.728-23.552 9.728z" fill="#ffffff" p-id="5895"></path></svg>