<?xml version="1.0" standalone="no"?><!DOCTYPE svg PUBLIC "-//W3C//DTD SVG 1.1//EN" "http://www.w3.org/Graphics/SVG/1.1/DTD/svg11.dtd"><svg t="1699858746955" class="icon" viewBox="0 0 1024 1024" version="1.1" xmlns="http://www.w3.org/2000/svg" p-id="4022" width="32" height="32" xmlns:xlink="http://www.w3.org/1999/xlink"><path d="M953.248 521.472 532.704 72.128c-5.056-5.024-11.648-7.296-18.464-7.744l-5.152 0c-6.816 0.416-13.408 2.688-18.464 7.744L73.28 521.472c-11.616 11.648-10.912 31.168 1.6 43.68 0.192 0.192 0.416 0.256 0.608 0.416 5.568 5.984 13.28 9.76 21.888 9.76L192 575.328l0 352.736c0 9.408 4.256 17.632 10.72 23.488 5.6 6.624 13.536 10.976 22.656 10.976l191.648 0c8.768 0 16.576-3.968 22.144-10.176C446.336 946.496 451.2 937.984 451.2 928l0-9.344c-0.16-0.896-0.544-1.696-0.544-2.656L450.656 720c0-8.832 7.168-16 16-16L560 704c8.832 0 16 7.168 16 16l0 196c0 0.704-0.32 1.312-0.416 1.984L575.584 928c0 9.984 4.864 18.496 12.032 24.352 5.568 6.208 13.376 10.176 22.144 10.176l191.648 0c9.12 0 17.056-4.352 22.656-10.976 6.496-5.856 10.72-14.08 10.72-23.488L834.784 575.328l94.624 0c8.736 0 16.512-3.936 22.08-10.112 0.032-0.032 0.096-0.064 0.128-0.096C964.128 552.672 964.832 533.12 953.248 521.472zM417.376 639.328c-16.896 0-30.592 14.336-30.592 32 0 0.736 0.352 1.344 0.384 2.08l0 225.12L256 898.528 256 543.904c0-4.576-1.024-8.864-2.752-12.768-4.576-11.616-15.456-19.808-28.224-19.808l-55.68 0L494.24 158.816c15.808-15.808 19.744-15.872 34.816 0l327.712 352.544-54.976 0c-12.768 0-23.648 8.192-28.224 19.808-1.728 3.936-2.752 8.224-2.752 12.768l0 354.624-131.2 0 0-226.624c0-0.096-0.064-0.192-0.064-0.288 0-0.096 0.064-0.192 0.064-0.288 0-17.664-13.696-32-30.592-32L417.376 639.36z" fill="#ffffff" p-id="4023"></path></svg>