<?xml version="1.0" standalone="no"?><!DOCTYPE svg PUBLIC "-//W3C//DTD SVG 1.1//EN" "http://www.w3.org/Graphics/SVG/1.1/DTD/svg11.dtd"><svg t="1577668178482" class="icon" viewBox="0 0 1024 1024" version="1.1" xmlns="http://www.w3.org/2000/svg" p-id="6428" xmlns:xlink="http://www.w3.org/1999/xlink" width="64" height="64"><defs><style type="text/css"></style></defs><path d="M505.629 713.549c1.518 3.279 3.873 5.197 6.371 5.197 2.498-0.003 4.853-1.924 6.377-5.197l151.552-189.315c2.218-4.745 2.23-11.34 0.052-16.123-2.177-4.777-6.021-6.563-9.382-4.372l-100.356 17.825 0.009-346.262C560.244 167.949 556.65 162 552.2 162h-80.406c-4.453 0-8.044 5.949-8.053 13.302l0.009 346.262-100.358-17.816c-3.363-2.192-7.205-0.408-9.373 4.363-1.087 2.375-1.623 5.197-1.623 8.009 0 2.935 0.586 5.782 1.667 8.114l151.566 189.315zM221.335 742.621L78.081 862h724.584l143.254-119.379z" fill="#ffffff" p-id="6429"></path></svg>