<?xml version="1.0" standalone="no"?><!DOCTYPE svg PUBLIC "-//W3C//DTD SVG 1.1//EN" "http://www.w3.org/Graphics/SVG/1.1/DTD/svg11.dtd"><svg t="1699865220901" class="icon" viewBox="0 0 1024 1024" version="1.1" xmlns="http://www.w3.org/2000/svg" p-id="4063" width="48" height="48" xmlns:xlink="http://www.w3.org/1999/xlink"><path d="M796.416 797.696c49.28 0 92.672 22.656 128.704 65.664l8.896 11.136 19.2 25.6-51.2 38.4-19.2-25.6c-26.304-35.008-54.528-51.2-86.4-51.2-15.36 0-24.96 4.16-44.288 18.944l-7.68 6.08c-35.328 28.224-56 39.04-92.032 39.04-32.448 0-52.48-8.768-81.856-31.104l-10.176-7.936c-24.704-19.776-34.688-24.96-51.968-24.96-28.672 0-54.4 13.056-78.464 41.216l-7.936 9.92-19.2 25.6-51.2-38.4 19.2-25.6c37.696-50.24 84.096-76.8 137.6-76.8 32.384 0 52.416 8.768 81.792 31.104l10.24 7.936c24.64 19.776 34.624 24.96 51.968 24.96 15.36 0 24.96-4.096 44.288-18.88l7.68-6.08c35.328-28.224 56-39.04 92.032-39.04zM503.936 64l121.664 363.648 93.312-186.432 135.616 322.112-59.008 24.832-81.6-193.92-59.648 119.104 3.904 11.456 11.712 38.016-61.12 18.88-11.52-37.312-98.112-292.992L405.12 491.136l28.8 71.04-59.264 24.064-71.424-176.128-150.528 451.584h147.648v64H64L297.472 225.28l72.768 179.584L503.936 64z m292.48 573.696c49.28 0 92.672 22.656 128.704 65.664l8.896 11.136 19.2 25.6-51.2 38.4-19.2-25.6c-26.304-35.008-54.528-51.2-86.4-51.2-15.36 0-24.96 4.16-44.288 18.944l-7.68 6.08c-35.328 28.224-56 39.04-92.032 39.04-32.448 0-52.48-8.768-81.856-31.104l-10.176-7.936c-24.704-19.776-34.688-24.96-51.968-24.96-28.672 0-54.4 13.056-78.464 41.216l-7.936 9.92-19.2 25.6-51.2-38.4 19.2-25.6c37.696-50.24 84.096-76.8 137.6-76.8 32.384 0 52.416 8.768 81.792 31.104l10.24 7.936c24.64 19.776 34.624 24.96 51.968 24.96 15.36 0 24.96-4.096 44.288-18.88l7.68-6.08c35.328-28.224 56-39.04 92.032-39.04z" fill="#ffffff" p-id="4064"></path></svg>