<?xml version="1.0" standalone="no"?><!DOCTYPE svg PUBLIC "-//W3C//DTD SVG 1.1//EN" "http://www.w3.org/Graphics/SVG/1.1/DTD/svg11.dtd"><svg t="1577667208292" class="icon" viewBox="0 0 1024 1024" version="1.1" xmlns="http://www.w3.org/2000/svg" p-id="5168" xmlns:xlink="http://www.w3.org/1999/xlink" width="64" height="64"><defs><style type="text/css"></style></defs><path d="M670.9 403.2c21.9 31.7 33.7 69.3 33.7 108.7 0 51.3-20 99.5-56.2 135.7s-84.4 56.2-135.7 56.2-99.5-20-135.7-56.2c-36.2-36.2-56.2-84.4-56.2-135.7s20-99.5 56.2-135.7c32.5-32.5 74.6-51.9 119.9-55.6l-5.1-63.8c-131.6 10.6-235 120.8-235 255.1 0 141.3 114.6 255.9 255.9 255.9s255.9-114.6 255.9-255.9c0-53.8-16.6-103.6-44.9-144.8l-52.8 36.1z" fill="#ffffff" p-id="5169"></path><path d="M512.1 65.3v414.9c-17.7 0-32 14.3-32 32s14.3 32 32 32 32-14.3 32-32c0-7.7-2.7-14.7-7.2-20.2l322.4-261.2 0.4-0.4c0.1 0 0.1-0.1 0.2-0.1C778 129 652.8 64.2 512.4 64.2h-0.3v1.1z" fill="#ffffff" p-id="5170"></path><path d="M881.4 259l-0.4 0.4c-0.1 0-0.1 0.1-0.2 0.1l-52.1 35.8c14.3 21 26.6 43.3 36.5 66.9 20 47.2 30.1 97.3 30.1 149s-10.1 101.9-30.1 149c-19.3 45.6-46.9 86.6-82.1 121.7-35.2 35.2-76.2 62.8-121.7 82.1-47.2 20-97.3 30.1-149 30.1S410.5 884 363.4 864c-45.6-19.3-86.6-46.9-121.7-82.1-35.2-35.2-62.8-76.2-82.1-121.7-20-47.2-30.1-97.3-30.1-149s10.1-101.9 30.1-149c19.3-45.6 46.9-86.6 82.1-121.7 35.2-35.2 76.2-62.8 121.7-82.1 37.8-16 77.5-25.7 118.4-28.9l-5-62.7-0.1-1.1C246.5 83.8 65.4 276.3 65.4 511.2c0 246.8 200.1 447 447 447s447-200.1 447-447c-0.1-93.6-28.8-180.4-78-252.2z" fill="#ffffff" p-id="5171"></path></svg>