<svg class="icon" viewBox="0 0 1024 1024" xmlns="http://www.w3.org/2000/svg" height="24" width="24"><path d="M960 0H64C28.712 0 0 28.712 0 64v896c0 35.288 28.712 64 64 64h896c35.288 0 64-28.712 64-64V64c0-35.288-28.712-64-64-64zm32 960c0 17.648-14.352 32-32 32H64c-17.648 0-32-14.352-32-32V64c0-17.648 14.352-32 32-32h896c17.648 0 32 14.352 32 32v896z" fill="#fff"/><path d="M512 357.336c-66.272 0-120 53.728-120 120 0 97.424 120 189.336 120 189.336s120-90.72 120-189.336c0-66.28-53.728-120-120-120zM880 120H704a24 24 0 1 0 0 48h152v152a24 24 0 1 0 48 0V144a24 24 0 0 0-24-24zm-560 0H144a24 24 0 0 0-24 24v176a24 24 0 1 0 48 0V168h152a24 24 0 1 0 0-48zm0 736H168V704a24 24 0 1 0-48 0v176a24 24 0 0 0 24 24h176a24 24 0 1 0 0-48zm560-176a24 24 0 0 0-24 24v152H704a24 24 0 1 0 0 48h176a24 24 0 0 0 24-24V704a24 24 0 0 0-24-24zM512 328a24 24 0 0 0 24-24V176a24 24 0 1 0-48 0v128a24 24 0 0 0 24 24zm0 368a24 24 0 0 0-24 24v128a24 24 0 1 0 48 0V720a24 24 0 0 0-24-24zM304 536a24 24 0 1 0 0-48H176a24 24 0 1 0 0 48h128zm544 0a24 24 0 1 0 0-48H720a24 24 0 1 0 0 48h128z" fill="#fff"/></svg>