<svg class="icon" viewBox="0 0 1024 1024" xmlns="http://www.w3.org/2000/svg" height="24" width="24"><path d="M330.3 922.4l590.9-590.9-227.3-227.3L103 695.1l227.3 227.3zM12.1 695.1L693.9 13.3l318.2 318.2-681.8 681.8L12.1 695.1zm363.6-272.7l45.5-45.5L580.3 536l-45.5 45.5-159.1-159.1zM271.2 526.9l45.5-45.5L430.3 595l-45.5 45.5-113.6-113.6zm309.1-309.1l45.5-45.5L739.4 286l-45.5 45.5-113.6-113.7zM171.2 626.9l45.5-45.5L330.3 695l-45.5 45.5-113.6-113.6zm309.1-309.1l45.5-45.5L639.4 386l-45.5 45.5-113.6-113.7z" fill="#fff"/></svg>