<?xml version="1.0" standalone="no"?><!DOCTYPE svg PUBLIC "-//W3C//DTD SVG 1.1//EN" "http://www.w3.org/Graphics/SVG/1.1/DTD/svg11.dtd"><svg t="1575443199323" class="icon" viewBox="0 0 1024 1024" version="1.1" xmlns="http://www.w3.org/2000/svg" p-id="2132" xmlns:xlink="http://www.w3.org/1999/xlink" width="200" height="200"><defs><style type="text/css"></style></defs><path d="M864 828.8H160c-8.8 0-16-4.8-20.8-12s-4.8-16-0.8-23.2l352-667.2c6.4-12 20.8-16 32.8-10.4 12 6.4 16 20.8 10.4 32.8L200 780.8h664c13.6 0 24 10.4 24 24s-10.4 24-24 24z" fill="#ffffff" p-id="2133"></path><path d="M477.6 910.4h-3.2c-12.8-1.6-22.4-13.6-20.8-27.2 3.2-21.6 3.2-46.4 0.8-72-13.6-140-116-255.2-253.6-285.6-12.8-3.2-20.8-16-18.4-28.8 3.2-12.8 16-20.8 28.8-18.4 157.6 35.2 274.4 167.2 290.4 328 2.4 29.6 2.4 57.6-0.8 83.2-0.8 12-11.2 20.8-23.2 20.8z" fill="#ffffff" p-id="2134"></path></svg>