<?xml version="1.0" standalone="no"?><!DOCTYPE svg PUBLIC "-//W3C//DTD SVG 1.1//EN" "http://www.w3.org/Graphics/SVG/1.1/DTD/svg11.dtd"><svg t="1577668135031" class="icon" viewBox="0 0 1024 1024" version="1.1" xmlns="http://www.w3.org/2000/svg" p-id="6250" xmlns:xlink="http://www.w3.org/1999/xlink" width="64" height="64"><defs><style type="text/css"></style></defs><path d="M909 812H665v-60h219a15 15 0 0 0 15-15V287a15 15 0 0 0-15-15H665v-60h244a50 50 0 0 1 50 50v500a50 50 0 0 1-50 50zM575 959a30 30 0 0 1-30-30V95a30 30 0 0 1 60 0v834a30 30 0 0 1-30 30zM425 752h60v60h-60v-60z m0-540h60v60h-60v-60zM305 752h60v60h-60v-60z m0-540h60v60h-60v-60zM185 752h60v60h-60v-60z m0-540h60v60h-60v-60zM65 762v-40h60v90h-10a50 50 0 0 1-50-50z m0-160h60v60H65v-60z m0-120h60v60H65v-60z m0-120h60v60H65v-60z m0-100a50 50 0 0 1 50-50h10v90H65v-40z" fill="#ffffff" p-id="6251"></path></svg>