<?xml version="1.0" standalone="no"?><!DOCTYPE svg PUBLIC "-//W3C//DTD SVG 1.1//EN" "http://www.w3.org/Graphics/SVG/1.1/DTD/svg11.dtd"><svg t="1699868814790" class="icon" viewBox="0 0 1024 1024" version="1.1" xmlns="http://www.w3.org/2000/svg" p-id="6173" width="64" height="64" xmlns:xlink="http://www.w3.org/1999/xlink"><path d="M928 671.68C928 431.648 741.76 192 512 192S96 431.648 96 671.68s832 240.032 832 0z" fill="#F0F0F0" p-id="6174"></path><path d="M96 688a416 176 0 1 0 832 0 416 176 0 1 0-832 0Z" fill="#E5E5E4" p-id="6175"></path><path d="M752.96 821.92l-253.952-151.904 166.368-186.88c83.968-67.04 148.736-88.64 194.304-64.704C905.216 442.336 928 532.16 928 688c-22.464 38.624-45.216 67.456-68.32 86.528-23.104 19.072-58.688 34.88-106.752 47.36z m-253.952-151.904l-250.88 163.264-73.728-31.68-74.208-113.6 21.92-176C136.96 434.752 176 405.312 239.296 423.744c63.264 18.432 99.84 35.2 109.632 50.304l150.08 195.936z" fill="#D86344" p-id="6176"></path><path d="M860.672 429.088c52.16 114.112 70.624 204.832 55.328 272.128-15.328 67.296-64.896 111.328-148.704 132.064l-9.28-22.4c-70.56-18.144-67.488-65.088 9.28-140.864 76.736-75.808 107.84-156.096 93.376-240.96zM175.008 577.6l-28.704 92.384 75.968 45.312-40.576 95.584c-61.344-25.856-88.128-87.168-80.288-183.936 7.84-96.8 18.72-137.696 32.704-122.752l40.896 73.408z" fill="#8E3526" p-id="6177"></path><path d="M499.008 670.016h268.288v163.264l-268.288-163.264z m-3.008 0L253.408 833.28l-48.064-11.36-51.84-29.504 68.768-77.12 273.728-45.312z m0 0H146.304l28.704-92.416L496 669.984z" fill="#C14130" p-id="6178"></path><path d="M80.32 680.352c-0.224-2.88-0.32-5.76-0.32-8.672C80 414.784 279.904 176 512 176s432 238.784 432 495.68a31.2 31.2 0 0 1-0.448 7.168c0.32 3.04 0.448 6.08 0.448 9.152 0 109.792-194.272 192-432 192S80 797.792 80 688c0-2.56 0.096-5.12 0.32-7.648z m32-1.28v2.976c-0.224 1.984-0.32 3.968-0.32 5.952 0 84.608 178.24 160 400 160s400-75.392 400-160c0-1.984-0.096-3.968-0.32-8.96 0.224-2.4 0.32-4.864 0.32-7.36C912 431.328 725.024 208 512 208S112 431.328 112 671.68c0 2.496 0.096 4.96 0.32 7.36z m533.792-173.952l-25.44 29.12A939.008 939.008 0 0 0 512 528c-40.736 0-80 2.56-116.928 7.232l-22.176-29.376c43.68-6.4 90.496-9.856 139.104-9.856 46.784 0 91.84 3.2 134.112 9.12z" fill="#5D6D7E" p-id="6179"></path></svg>