<?xml version="1.0" standalone="no"?><!DOCTYPE svg PUBLIC "-//W3C//DTD SVG 1.1//EN" "http://www.w3.org/Graphics/SVG/1.1/DTD/svg11.dtd"><svg t="1577667163330" class="icon" viewBox="0 0 1024 1024" version="1.1" xmlns="http://www.w3.org/2000/svg" p-id="4810" xmlns:xlink="http://www.w3.org/1999/xlink" width="64" height="64"><defs><style type="text/css"></style></defs><path d="M237.283 512.179c0.102-8.864-3.331-17.216-9.582-23.519-6.302-6.328-14.654-9.812-23.57-9.812h-83.98c-18.292 0-33.151 14.936-33.151 33.305 0 18.318 14.859 33.203 33.151 33.203h83.98c18.293 0 33.152-14.884 33.152-33.177zM266.028 311.913c6.097 6.123 14.244 9.479 22.904 9.479 8.608 0 16.755-3.356 22.904-9.479 12.656-12.656 12.656-33.203 0-45.833l-57.644-57.618c-12.246-12.22-33.561-12.169-45.756 0-6.149 6.123-9.53 14.27-9.53 22.955 0 8.685 3.382 16.832 9.53 22.955l57.592 57.541zM735.017 321.366c7.891 0 15.32-2.793 21.213-7.916l3.279-0.102v-3.074l56.106-56.081c12.502-12.63 12.502-33.177-0.051-45.833-12.144-12.118-33.408-12.22-45.859 0l-57.695 57.644c-12.451 12.63-12.451 33.177 0 45.782 6.149 6.173 14.296 9.58 23.007 9.58zM511.974 237.488c18.343 0 33.203-14.91 33.203-33.228v-84.032c0-18.318-14.859-33.228-33.203-33.228-18.292 0-33.151 14.91-33.151 33.228v83.955c0 18.369 14.859 33.305 33.151 33.305zM757.972 712.216c-12.297-12.272-33.613-12.22-45.807 0-12.656 12.63-12.656 33.177 0 45.833l57.592 57.644c6.149 6.072 14.296 9.402 22.904 9.402 8.659 0 16.806-3.356 22.904-9.428 12.656-12.656 12.656-33.28 0-45.936l-57.593-57.515z" fill="#ffffff" p-id="4811"></path><path d="M508.336 254.935c-139.728 0-253.427 113.724-253.427 253.478s113.699 253.453 253.427 253.453 253.427-113.699 253.427-253.453-113.698-253.478-253.427-253.478zM695.409 508.49c0 103.144-83.929 187.047-187.073 187.047S321.264 611.634 321.264 508.49s83.929-187.047 187.073-187.047 187.072 83.903 187.072 187.047zM266.028 712.216l-57.592 57.592c-12.656 12.63-12.656 33.228 0 45.936 6.097 6.123 14.244 9.505 22.904 9.505 8.659 0 16.806-3.382 22.955-9.505l57.592-57.618c6.149-6.123 9.53-14.27 9.53-22.929s-3.382-16.806-9.53-22.981c-12.297-12.247-33.664-12.247-45.859 0zM903.849 478.849h-83.98c-18.344 0-33.203 14.91-33.203 33.203 0 18.318 14.859 33.203 33.203 33.203h83.98c18.292 0 33.151-14.885 33.151-33.203 0-18.293-14.859-33.203-33.151-33.203zM511.974 786.64c-18.292 0-33.151 14.885-33.151 33.203v83.955c0 18.318 14.859 33.203 33.151 33.203 18.343 0 33.203-14.885 33.203-33.203v-83.955c0-18.318-14.859-33.203-33.203-33.203z" fill="#ffffff" p-id="4812"></path></svg>